<?xml version="1.0" encoding="UTF-8" standalone="no"?>
<svg
   xmlns:dc="http://purl.org/dc/elements/1.1/"
   xmlns:cc="http://creativecommons.org/ns#"
   xmlns:rdf="http://www.w3.org/1999/02/22-rdf-syntax-ns#"
   xmlns:svg="http://www.w3.org/2000/svg"
   xmlns="http://www.w3.org/2000/svg"
   xmlns:sodipodi="http://sodipodi.sourceforge.net/DTD/sodipodi-0.dtd"
   xmlns:inkscape="http://www.inkscape.org/namespaces/inkscape"
   id="svg986"
   version="1.1"
   viewBox="0 0 26.231991 29.866413"
   height="112.88094"
   width="99.144531"
   sodipodi:docname="freccia_N_Q3_Italia3.svg"
   inkscape:version="0.92.1 r15371">
  <sodipodi:namedview
     pagecolor="#ffffff"
     bordercolor="#666666"
     borderopacity="1"
     objecttolerance="10"
     gridtolerance="10"
     guidetolerance="10"
     inkscape:pageopacity="0"
     inkscape:pageshadow="2"
     inkscape:window-width="1920"
     inkscape:window-height="1051"
     id="namedview12"
     showgrid="false"
     fit-margin-top="0"
     fit-margin-left="0"
     fit-margin-right="0"
     fit-margin-bottom="0"
     inkscape:zoom="3.5416667"
     inkscape:cx="24.30608"
     inkscape:cy="44.884609"
     inkscape:window-x="-9"
     inkscape:window-y="-9"
     inkscape:window-maximized="1"
     inkscape:current-layer="svg986" />
  <defs
     id="defs980" />
  <metadata
     id="metadata983">
    <rdf:RDF>
      <cc:Work
         rdf:about="">
        <dc:format>image/svg+xml</dc:format>
        <dc:type
           rdf:resource="http://purl.org/dc/dcmitype/StillImage" />
        <dc:title></dc:title>
      </cc:Work>
    </rdf:RDF>
  </metadata>
  <path
     style="fill:none;fill-opacity:1;fill-rule:evenodd;stroke:#000000;stroke-width:0.02645835;stroke-miterlimit:4;stroke-dasharray:none;stroke-opacity:1"
     d="m 16.658788,29.675525 c -0.191524,-0.101708 -0.64862,-0.34844 -1.015751,-0.548043 -0.367131,-0.199574 -1.064442,-0.537962 -1.549582,-0.751846 -1.694116,-0.746877 -1.737828,-0.779371 -1.706986,-1.268784 0.01448,-0.230914 0.04393,-0.323546 0.132872,-0.418277 0.202605,-0.215835 0.376146,-0.236236 1.490662,-0.174442 1.963503,0.108509 2.858106,0.06416 3.753985,-0.186268 0.734756,-0.205192 1.393732,-0.664358 1.60484,-1.117996 0.131012,-0.281473 0.14484,-0.662466 0.04421,-1.217576 C 19.265034,23.176022 19.013183,22.77859 18.305179,22.244029 18.047293,22.049482 17.512302,21.600427 17.1163,21.246487 15.855943,20.119946 15.534876,19.90896 14.590965,19.586922 13.481555,19.208442 12.95118,18.893146 11.566465,17.788868 11.055101,17.381088 10.36586,16.839401 10.034818,16.58513 8.9566676,15.757033 8.6065676,15.291775 8.2250586,14.180106 c -0.350366,-1.020929 -0.736531,-1.552149 -1.347482,-1.853609 -0.796347,-0.392967 -1.615028,-0.236827 -2.7213,0.51901 -0.637732,0.435691 -0.869949,0.460438 -1.5055497,0.16025 C 2.2051689,12.795539 1.6750322,12.247407 1.4158721,11.729285 1.1587828,11.215331 1.1554144,10.973419 1.3925309,10.052276 1.5886053,9.2901424 1.5922986,9.0281544 1.4123289,8.6558534 1.278806,8.3799984 1.3038913,8.3158684 1.6044737,8.1655534 c 0.1523445,-0.07628 0.3658076,-0.12004 0.7601366,-0.156111 0.301572,-0.02661 0.656167,-0.08101 0.7879883,-0.118857 0.302083,-0.08663 0.612067,-0.349505 0.762592,-0.646737 0.128441,-0.25368 0.13243,-0.257523 0.323706,-0.303174 0.112899,-0.02661 0.154176,-0.0089 0.26223,0.123883 0.456727,0.556027 0.724332,0.696409 1.04024,0.545649 0.153763,-0.07332 0.496483,-0.526844 0.567576,-0.750988 0.03675,-0.1159 0.100401,-0.114126 0.382815,0.01183 0.322184,0.14251 0.667828,0.132458 0.963228,-0.02957 0.126816,-0.06919 0.433364,-0.287681 0.681187,-0.485983 0.62893,-0.503044 0.795652,-0.578349 1.465283,-0.661934 0.307299,-0.03844 0.7518264,-0.112352 0.9878394,-0.164685 0.857045,-0.189521 1.183617,-0.113535 1.735979,0.403316 0.445687,0.417064 0.51593,0.442048 1.411694,0.502157 0.938536,0.06298 0.983775,0.10023 0.965346,0.791671 -0.0086,0.324462 0.01123,0.553159 0.06299,0.729611 0.138635,0.471466 0.03933,0.595852 -0.558617,0.699778 -0.262703,0.04553 -0.443803,0.112649 -0.650845,0.240376 -0.157782,0.09757 -0.490907,0.236827 -0.740305,0.310004 -0.249407,0.07303 -0.496166,0.175625 -0.548373,0.227957 -0.08737,0.08752 -0.09,0.112648 -0.033,0.316331 0.0466,0.16646 0.05194,0.3711776 0.02157,0.8264416 -0.0754,1.131508 -0.06246,1.387139 0.0827,1.634226 0.154856,0.263733 0.331592,0.388473 1.016203,0.71808 0.465899,0.224409 0.572715,0.300691 0.95643,0.683961 0.493368,0.492813 0.700541,0.821563 1.068626,1.695812 0.403717,0.95887 0.825424,1.50032 1.443655,1.853639 0.57199,0.326917 1.049096,0.43646 1.900698,0.43646 0.346283,0 0.662398,0.02365 0.715128,0.05056 0.158195,0.08456 0.18523,0.240966 0.107078,0.618796 -0.03942,0.190408 -0.05933,0.395569 -0.04429,0.455589 0.03918,0.156111 0.226035,0.268464 0.742338,0.445951 0.596653,0.205191 1.944126,0.870909 2.585652,1.277537 1.443951,0.915229 1.793478,1.518857 1.179073,2.036181 -0.226419,0.190704 -0.380572,0.166164 -0.625509,-0.09934 -0.491888,-0.533142 -0.862839,-0.80607 -1.287427,-0.947161 -0.337942,-0.112352 -0.737448,-0.07717 -0.984553,0.08633 -0.249968,0.165572 -0.440621,0.549995 -0.473016,0.953843 l -0.02394,0.298621 0.348162,0.262255 c 0.468194,0.352639 0.624419,0.55576 0.652512,0.84832 0.03194,0.332622 -0.101524,0.560255 -0.677402,1.155368 -0.28767,0.297261 -0.579179,0.656139 -0.716939,0.882647 -0.528793,0.869372 -0.754789,1.024536 -1.493551,1.025305 -0.244295,2.37e-4 -0.485601,0.02365 -0.536239,0.04967 -0.153881,0.08249 -0.287935,0.416178 -0.343239,0.854648 -0.04471,0.354472 -0.04065,0.457393 0.02777,0.701168 0.09937,0.354383 0.101021,0.542544 0.0068,0.768284 -0.09464,0.226774 -0.194981,0.335017 -0.413479,0.446601 -0.25765,0.131571 -0.41974,0.112648 -0.809882,-0.09461 z M 4.6243906,24.572505 c -0.175391,-0.110579 -0.305271,-0.403582 -0.305056,-0.688632 8.6e-5,-0.110874 0.03197,-0.384275 0.07085,-0.607324 0.03888,-0.222931 0.0757,-0.620245 0.08179,-0.882648 l 0.01123,-0.477113 -0.227217,-0.429394 c -0.327193,-0.618352 -0.352425,-0.959697 -0.09369,-1.267366 0.231886,-0.275855 0.407398,-0.360533 1.32516,-0.639906 0.797431,-0.24274 0.963648,-0.241262 1.214118,0.01183 0.219535,0.220861 0.358297,0.582193 0.460784,1.199718 0.07617,0.459048 0.07555,0.479774 -0.02981,0.964634 -0.06982,0.321328 -0.118099,0.748445 -0.137364,1.215034 -0.02866,0.692091 -0.03513,0.72828 -0.172703,0.94991 -0.166527,0.268168 -0.501993,0.515284 -0.850746,0.626425 -0.135237,0.04317 -0.460438,0.08752 -0.722674,0.09875 -0.412397,0.01774 -0.496748,0.0089 -0.624539,-0.07273 z"
     id="use4751-9"
     inkscape:connector-curvature="0" />
  <g
     inkscape:groupmode="layer"
     id="layer3"
     inkscape:label="stivale"
     transform="translate(-6.9225934,-6.3389516)" />
  <g
     inkscape:groupmode="layer"
     id="layer4"
     inkscape:label="Q3"
     transform="translate(-6.9225934,-6.3389516)" />
  <g
     transform="translate(12.343518,26.496768)"
     id="layer2">
    <path
       fill="param(fill) #FFF"
       stroke="param(outline) #000"
       stroke-width="param(outline-width) 1"
       id="path1604"
       transform="matrix(0.26458333,0,0,0.26458333,-12.456689,-27.51066)"
       d="M 43.791016,3.8320312 V 18.441406 h 3.486328 V 9.4453125 l 6.71875,8.9960935 h 3.277344 V 3.8320312 H 53.808594 V 12.847656 L 47.068359,3.8320312 Z M 50.558594,17.242188 48.226562,36.818359 C 39.752666,36.844604 32.40627,40.002521 27.375,45.21875 l -9.46875,-8.462891 8.376953,9.681641 c -3.78768,4.471749 -6.003906,10.235794 -6.003906,16.726562 0,1.042794 0.0615,2.065541 0.171875,3.070313 L 0.42773438,66.585938 20.919922,69.078125 C 22.303413,75.37161 25.878435,80.696834 30.929688,84.375 L 17.90625,96.708984 32.806641,85.625 c 4.388136,2.662751 9.689159,4.183594 15.527343,4.183594 0.521634,0 1.029344,-0.008 1.525391,-0.02539 l 0.699219,26.384766 2.660156,-26.677735 c 2.064193,-0.291814 3.994688,-0.795831 5.986328,-1.591796 l -7.365234,-7.697266 c -1.195805,0.274772 -2.052309,0.34375 -3.333985,0.34375 -9.168113,0 -16.966797,-7.539789 -16.966797,-17.316406 0,-9.776391 7.712775,-17.150391 16.966797,-17.150391 9.254022,0 16.625,7.374 16.625,17.150391 0,1.590274 -0.270218,3.438618 -0.636718,4.888672 l 8.560547,8.166015 c 1.574933,-2.760051 2.642054,-5.845356 3.121093,-9.15625 L 99.572266,66.953125 76.439453,64.029297 c 0.0088,-0.288089 0.02734,-0.572451 0.02734,-0.863281 0,-6.048119 -1.939891,-11.484962 -5.300781,-15.828125 L 82.09375,36.755859 69.933594,45.871094 C 65.361042,40.805973 58.691596,37.514517 50.900391,36.919922 Z m -6.410156,42.691406 v 7.689453 l 6.814453,6.792969 v -8.025391 h 7.71875 l -6.53125,-6.457031 z m 10.044921,9.685547 v 8.013671 l 13.19336,13.152344 h 8.242187 l 6.462891,5.923828 -6.375,-7.550781 V 83.232422 L 61.947266,69.619141 Z"
       inkscape:connector-curvature="0" />
  </g>
  <g
     style="display:inline"
     transform="translate(-96.024898,-186.15104)"
     id="layer1">
    <g
       id="text4155"
       style="font-style:normal;font-weight:normal;font-size:1.13897634px;line-height:0%;font-family:sans-serif;letter-spacing:0px;word-spacing:0px;fill:#f3f4f3;fill-opacity:1;stroke:none;stroke-width:0;stroke-linecap:butt;stroke-linejoin:miter;stroke-miterlimit:4;stroke-dasharray:none;stroke-opacity:0"
       transform="rotate(45.232178)"
       aria-label="ITA">
      <path
         id="path1617"
         style="font-style:normal;font-variant:normal;font-weight:bold;font-stretch:normal;font-size:2.38140512px;line-height:1.25;font-family:sans-serif;-inkscape-font-specification:'sans-serif Bold';letter-spacing:0.59535128px;fill:#ffffff;fill-opacity:1;stroke:none;stroke-width:0;stroke-miterlimit:4;stroke-dasharray:none;stroke-opacity:0"
         d="m 223.61951,64.20076 h 0.44768 v 1.736053 h -0.44768 z"
         inkscape:connector-curvature="0" />
      <path
         id="path1619"
         style="font-style:normal;font-variant:normal;font-weight:bold;font-stretch:normal;font-size:2.38140512px;line-height:1.25;font-family:sans-serif;-inkscape-font-specification:'sans-serif Bold';letter-spacing:0.59535128px;fill:#ffffff;fill-opacity:1;stroke:none;stroke-width:0;stroke-miterlimit:4;stroke-dasharray:none;stroke-opacity:0"
         d="m 224.89626,64.20076 h 1.60001 v 0.338373 h -0.57558 v 1.39768 h -0.44768 v -1.39768 h -0.57675 z"
         inkscape:connector-curvature="0" />
      <path
         id="path1621"
         style="font-style:normal;font-variant:normal;font-weight:bold;font-stretch:normal;font-size:2.38140512px;line-height:1.25;font-family:sans-serif;-inkscape-font-specification:'sans-serif Bold';letter-spacing:0.59535128px;fill:#ffffff;fill-opacity:1;stroke:none;stroke-width:0;stroke-miterlimit:4;stroke-dasharray:none;stroke-opacity:0"
         d="m 228.1893,65.620533 h -0.7 l -0.11047,0.31628 h -0.45 l 0.64303,-1.736053 h 0.53372 l 0.64303,1.736053 h -0.45001 z m -0.58837,-0.322094 h 0.47558 l -0.23721,-0.690701 z"
         inkscape:connector-curvature="0" />
    </g>
  </g>
</svg>
