<?xml version="1.0" encoding="UTF-8" standalone="no"?>
<svg
   xmlns:dc="http://purl.org/dc/elements/1.1/"
   xmlns:cc="http://creativecommons.org/ns#"
   xmlns:rdf="http://www.w3.org/1999/02/22-rdf-syntax-ns#"
   xmlns:svg="http://www.w3.org/2000/svg"
   xmlns="http://www.w3.org/2000/svg"
   id="svg986"
   version="1.1"
   viewBox="0 0 26.458334 31.749999"
   height="120"
   width="100">
  <defs
     id="defs980" />
  <metadata
     id="metadata983">
    <rdf:RDF>
      <cc:Work
         rdf:about="">
        <dc:format>image/svg+xml</dc:format>
        <dc:type
           rdf:resource="http://purl.org/dc/dcmitype/StillImage" />
        <dc:title></dc:title>
      </cc:Work>
    </rdf:RDF>
  </metadata>
  <g
     transform="translate(12.456689,27.51066)"
     id="layer2">
    <path fill="param(fill) #FFF" stroke="param(outline) #000" stroke-width="param(outline-width) 1"
       id="path1604"
       transform="matrix(0.26458333,0,0,0.26458333,-12.456689,-27.51066)"
       d="M 43.791016 3.8320312 L 43.791016 18.441406 L 47.277344 18.441406 L 47.277344 9.4453125 L 53.996094 18.441406 L 57.273438 18.441406 L 57.273438 3.8320312 L 53.808594 3.8320312 L 53.808594 12.847656 L 47.068359 3.8320312 L 43.791016 3.8320312 z M 50.558594 17.242188 L 48.226562 36.818359 C 39.752666 36.844604 32.40627 40.002521 27.375 45.21875 L 17.90625 36.755859 L 26.283203 46.4375 C 22.495523 50.909249 20.279297 56.673294 20.279297 63.164062 C 20.279297 64.206856 20.340794 65.229603 20.451172 66.234375 L 0.42773438 66.585938 L 20.919922 69.078125 C 22.303413 75.37161 25.878435 80.696834 30.929688 84.375 L 17.90625 96.708984 L 32.806641 85.625 C 37.194777 88.287751 42.4958 89.808594 48.333984 89.808594 C 48.855618 89.808594 49.363328 89.800588 49.859375 89.783203 L 50.558594 116.16797 L 53.21875 89.490234 C 55.282943 89.19842 57.213438 88.694403 59.205078 87.898438 L 51.839844 80.201172 C 50.644039 80.475944 49.787535 80.544922 48.505859 80.544922 C 39.337746 80.544922 31.539062 73.005133 31.539062 63.228516 C 31.539062 53.452125 39.251837 46.078125 48.505859 46.078125 C 57.759881 46.078125 65.130859 53.452125 65.130859 63.228516 C 65.130859 64.81879 64.860641 66.667134 64.494141 68.117188 L 73.054688 76.283203 C 74.629621 73.523152 75.696742 70.437847 76.175781 67.126953 L 99.572266 66.953125 L 76.439453 64.029297 C 76.448283 63.741208 76.466797 63.456846 76.466797 63.166016 C 76.466797 57.117897 74.526906 51.681054 71.166016 47.337891 L 82.09375 36.755859 L 69.933594 45.871094 C 65.361042 40.805973 58.691596 37.514517 50.900391 36.919922 L 50.558594 17.242188 z M 44.148438 59.933594 L 44.148438 67.623047 L 50.962891 74.416016 L 50.962891 66.390625 L 58.681641 66.390625 L 52.150391 59.933594 L 44.148438 59.933594 z M 54.193359 69.619141 L 54.193359 77.632812 L 67.386719 90.785156 L 75.628906 90.785156 L 82.091797 96.708984 L 75.716797 89.158203 L 75.716797 83.232422 L 61.947266 69.619141 L 54.193359 69.619141 z "
        />
  </g>
  <g
     style="display:inline"
     transform="translate(-95.911726,-185.13715)"
     id="layer1">
    <g
       id="text4155"
       style="font-style:normal;font-weight:normal;font-size:1.13897634px;line-height:0%;font-family:sans-serif;letter-spacing:0px;word-spacing:0px;fill:#f3f4f3;fill-opacity:1;stroke:none;stroke-width:0;stroke-linecap:butt;stroke-linejoin:miter;stroke-miterlimit:4;stroke-dasharray:none;stroke-opacity:0"
       transform="rotate(45.232178)"
       aria-label="ITA">
      <path
         id="path1617"
         style="font-style:normal;font-variant:normal;font-weight:bold;font-stretch:normal;font-size:2.38140512px;line-height:1.25;font-family:sans-serif;-inkscape-font-specification:'sans-serif Bold';letter-spacing:0.59535128px;fill:#ffffff;fill-opacity:1;stroke:none;stroke-width:0;stroke-miterlimit:4;stroke-dasharray:none;stroke-opacity:0"
         d="m 223.61951,64.20076 h 0.44768 v 1.736053 h -0.44768 z" />
      <path
         id="path1619"
         style="font-style:normal;font-variant:normal;font-weight:bold;font-stretch:normal;font-size:2.38140512px;line-height:1.25;font-family:sans-serif;-inkscape-font-specification:'sans-serif Bold';letter-spacing:0.59535128px;fill:#ffffff;fill-opacity:1;stroke:none;stroke-width:0;stroke-miterlimit:4;stroke-dasharray:none;stroke-opacity:0"
         d="m 224.89626,64.20076 h 1.60001 v 0.338373 h -0.57558 v 1.39768 h -0.44768 v -1.39768 h -0.57675 z" />
      <path
         id="path1621"
         style="font-style:normal;font-variant:normal;font-weight:bold;font-stretch:normal;font-size:2.38140512px;line-height:1.25;font-family:sans-serif;-inkscape-font-specification:'sans-serif Bold';letter-spacing:0.59535128px;fill:#ffffff;fill-opacity:1;stroke:none;stroke-width:0;stroke-miterlimit:4;stroke-dasharray:none;stroke-opacity:0"
         d="m 228.1893,65.620533 h -0.7 l -0.11047,0.31628 h -0.45 l 0.64303,-1.736053 h 0.53372 l 0.64303,1.736053 h -0.45001 z m -0.58837,-0.322094 h 0.47558 l -0.23721,-0.690701 z" />
    </g>
  </g>
</svg>
